# xmcd CD database file
#
# Track frame offsets:
#	150
#	18170
#	32692
#	50327
#	66085
#	81262
#	97752
#	113157
#	123482
#	139542
#
# Disc length: 2059 seconds
#
# Revision: 0
# Processed by: cddbd v1.4PL0 Copyright (c) Steve Scherf et al.
# Submitted via: CDex 1.50Beta6
#
DISCID=7608090a
DTITLE=Hill - Hill
DYEAR=1994
DGENRE=Blues
TTITLE0=Heart Over Mind
TTITLE1=Test Our Resolve
TTITLE2=Crack the Sky
TTITLE3=Lover
TTITLE4=Just Another Fool
TTITLE5=No Pain
TTITLE6=Faceless
TTITLE7=Those Eyes
TTITLE8=Keep Somebody Warm
TTITLE9=He's All
EXTD=YEAR: 1994
EXTT0=
EXTT1=
EXTT2=
EXTT3=
EXTT4=
EXTT5=
EXTT6=
EXTT7=
EXTT8=
EXTT9=
PLAYORDER=
